<?xml version="1.0" encoding="UTF-8"?>
<!DOCTYPE svg PUBLIC "-//W3C//DTD SVG 1.1//EN" "http://www.w3.org/Graphics/SVG/1.1/DTD/svg11.dtd">
<!-- Creator: CorelDRAW 2020 (64-Bit) -->
<svg xmlns="http://www.w3.org/2000/svg" xml:space="preserve" width="254mm" height="254mm" version="1.1" shape-rendering="geometricPrecision" text-rendering="geometricPrecision" image-rendering="optimizeQuality" fill-rule="evenodd" clip-rule="evenodd"
viewBox="0 0 25400 25400"
 xmlns:xlink="http://www.w3.org/1999/xlink"
 xmlns:xodm="http://www.corel.com/coreldraw/odm/2003">
 <g id="Слой_x0020_1">
  <metadata id="CorelCorpID_0Corel-Layer"/>
  <path fill="#B37725" d="M14089.06 3543.32l0 -328.59c0,-218.91 -168.37,-400.35 -382.02,-421.29 -14.89,-1.59 -29.98,-2.44 -45.27,-2.43l-965.73 0.39 -961.77 0c-15.16,0 -30.14,0.83 -44.91,2.4 -213.81,20.85 -382.3,202.45 -382.21,421.49l0.68 1722.74c-1142.01,203.47 -2198.77,652.98 -3113.9,1291.46l-985.69 -985.69 -233.11 -233.11c-154.87,-154.87 -402.38,-164.05 -568.26,-27.59 -11.57,9.34 -22.76,19.36 -33.5,30.11l-670.19 670.73 -692.49 692.49c-10.8,10.8 -20.88,22.07 -30.26,33.71 -136.22,165.93 -126.89,413.31 27.98,568.05l1219.37 1218.4c-638.16,915.3 -1087.19,1972.28 -1290.29,3114.34l-1394.3 0 -328.45 0c-218.91,0 -400.35,168.37 -421.29,382.02 -1.59,14.89 -2.44,29.98 -2.43,45.27l0.39 965.73 0 961.77c0,15.16 0.83,30.14 2.4,44.91 20.85,213.81 202.45,382.3 421.49,382.21l1722.73 -0.68c203.56,1141.94 653.01,2198.75 1291.55,3113.82l-985.78 985.78 -233.1 233.1c-154.87,154.87 -164.05,402.38 -27.59,568.26 9.34,11.57 19.36,22.76 30.11,33.5l670.73 670.19 692.49 692.49c10.8,10.8 22.07,20.88 33.71,30.26 165.93,136.22 413.31,126.89 568.05,-27.98l1218.33 -1219.3c915.36,638.09 1972.29,1087.19 3114.41,1290.2l0 1394.33 0 328.44c0,218.91 168.37,400.35 382.02,421.29 14.89,1.59 29.98,2.44 45.27,2.43l965.73 -0.39 961.77 0c15.16,0 30.14,-0.83 44.91,-2.4 213.81,-20.85 382.3,-202.45 382.21,-421.49l-0.68 -1722.67c1142.03,-203.46 2198.79,-653.01 3113.93,-1291.5l985.81 985.81 232.96 232.96c154.87,154.87 402.38,164.05 568.26,27.59 11.57,-9.34 22.76,-19.36 33.5,-30.11l670.19 -670.73 692.49 -692.49c10.8,-10.8 20.88,-22.07 30.26,-33.71 136.22,-165.93 126.89,-413.31 -27.98,-568.05l-1219.34 -1218.37c638.16,-915.31 1087.18,-1972.3 1290.27,-3114.37l1394.16 0 328.58 0c218.91,0 400.35,-168.37 421.29,-382.02 1.59,-14.89 2.44,-29.98 2.43,-45.27l-0.39 -965.73 0 -961.77c0,-15.16 -0.83,-30.14 -2.4,-44.91 -20.85,-213.81 -202.45,-382.3 -421.49,-382.21l-1722.74 0.68c-203.56,-1141.95 -653.01,-2198.76 -1291.54,-3113.82l985.9 -985.9 232.98 -232.98c154.87,-154.87 164.05,-402.38 27.59,-568.26 -9.34,-11.57 -19.36,-22.76 -30.11,-33.5l-670.73 -670.19 -692.49 -692.49c-10.8,-10.8 -22.07,-20.88 -33.71,-30.26 -165.93,-136.22 -413.31,-126.89 -568.05,27.98l-233.04 233.22 -985.29 986.08c-915.37,-638.1 -1972.29,-1087.22 -3114.41,-1290.23l0 -1394.15zm-449.79 20472.57l-1878.54 0c-1018.65,0 -1852.08,-833.43 -1852.08,-1852.08l0 -631.76c-514,-162.36 -1008.65,-368.3 -1479.55,-613.58l-447.24 447.24c-720.3,720.29 -1898.94,720.29 -2619.24,0l-1328.33 -1328.33c-720.29,-720.3 -720.29,-1898.94 0,-2619.24l447.48 -447.48c-245.19,-470.89 -451.36,-965.33 -613.65,-1479.31l-631.93 0c-1018.65,0 -1852.08,-833.43 -1852.08,-1852.08l0 -1878.54c0,-1018.65 833.43,-1852.08 1852.08,-1852.08l631.76 0c162.36,-514 368.3,-1008.65 613.58,-1479.55l-447.24 -447.24c-720.29,-720.3 -720.29,-1898.94 0,-2619.24l1328.33 -1328.33c720.3,-720.29 1898.94,-720.29 2619.24,0l447.48 447.48c470.89,-245.18 965.33,-451.36 1479.31,-613.65l0 -631.93c0,-1018.65 833.43,-1852.08 1852.08,-1852.08l1878.54 0c1018.65,0 1852.08,833.43 1852.08,1852.08l0 631.93c513.97,162.29 1008.42,368.48 1479.31,613.66l447.48 -447.49c720.3,-720.29 1898.94,-720.29 2619.24,0l1328.33 1328.33c720.29,720.3 720.29,1898.94 0,2619.24l-447.25 447.24c245.28,470.9 451.22,965.55 613.58,1479.55l631.77 0c1018.65,0 1852.08,833.43 1852.08,1852.08l0 1878.54c0,1018.65 -833.43,1852.08 -1852.08,1852.08l-631.93 0c-162.29,513.98 -368.46,1008.43 -613.65,1479.32l447.48 447.47c720.29,720.3 720.29,1898.94 0,2619.24l-1328.33 1328.33c-720.3,720.29 -1898.94,720.29 -2619.24,0l-447.24 -447.24c-470.9,245.28 -965.54,451.23 -1479.55,613.58l0 631.76c0,1018.65 -833.43,1852.08 -1852.08,1852.08z"/>
  <path fill="white" d="M14089.06 4937.47c1142.12,203.01 2199.04,652.13 3114.41,1290.23l1218.33 -1219.3c154.74,-154.87 402.12,-164.2 568.05,-27.98 11.64,9.38 22.91,19.46 33.71,30.26l692.49 692.49 670.73 670.19c10.75,10.74 20.77,21.93 30.11,33.5 136.46,165.88 127.28,413.39 -27.59,568.26l-1218.88 1218.88c638.53,915.06 1087.98,1971.87 1291.54,3113.82l1722.74 -0.68c219.04,-0.09 400.64,168.4 421.49,382.21 1.57,14.77 2.4,29.75 2.4,44.91l0 961.77 0.39 965.73c0.01,15.29 -0.84,30.38 -2.43,45.27 -20.94,213.65 -202.38,382.02 -421.29,382.02l-1722.74 0c-203.09,1142.07 -652.11,2199.06 -1290.27,3114.37l1219.34 1218.37c154.87,154.74 164.2,402.12 27.98,568.05 -9.38,11.64 -19.46,22.91 -30.26,33.71l-692.49 692.49 -670.19 670.73c-10.74,10.75 -21.93,20.77 -33.5,30.11 -165.88,136.46 -413.39,127.28 -568.26,-27.59l-1218.77 -1218.77c-915.14,638.49 -1971.9,1088.04 -3113.93,1291.5l0.68 1722.67c0.09,219.04 -168.4,400.64 -382.21,421.49 -14.77,1.57 -29.75,2.4 -44.91,2.4l-961.77 0 -965.73 0.39c-15.29,0.01 -30.38,-0.84 -45.27,-2.43 -213.65,-20.94 -382.02,-202.38 -382.02,-421.29l0 -1722.77c-1142.12,-203.01 -2199.05,-652.11 -3114.41,-1290.2l-1218.33 1219.3c-154.74,154.87 -402.12,164.2 -568.05,27.98 -11.64,-9.38 -22.91,-19.46 -33.71,-30.26l-692.49 -692.49 -670.73 -670.19c-10.75,-10.74 -20.77,-21.93 -30.11,-33.5 -136.46,-165.88 -127.28,-413.39 27.59,-568.26l1218.88 -1218.88c-638.54,-915.07 -1087.99,-1971.88 -1291.55,-3113.82l-1722.73 0.68c-219.04,0.09 -400.64,-168.4 -421.49,-382.21 -1.57,-14.77 -2.4,-29.75 -2.4,-44.91l0 -961.77 -0.39 -965.73c-0.01,-15.29 0.84,-30.38 2.43,-45.27 20.94,-213.65 202.38,-382.02 421.29,-382.02l1722.75 0c203.1,-1142.06 652.13,-2199.04 1290.29,-3114.34l-1219.37 -1218.4c-154.87,-154.74 -164.2,-402.12 -27.98,-568.05 9.38,-11.64 19.46,-22.91 30.26,-33.71l692.49 -692.49 670.19 -670.73c10.74,-10.75 21.93,-20.77 33.5,-30.11 165.88,-136.46 413.39,-127.28 568.26,27.59l1218.8 1218.8c915.13,-638.48 1971.89,-1087.99 3113.9,-1291.46l-0.68 -1722.74c-0.09,-219.04 168.4,-400.64 382.21,-421.49 14.77,-1.57 29.75,-2.4 44.91,-2.4l961.77 0 965.73 -0.39c15.29,-0.01 30.38,0.84 45.27,2.43 213.65,20.94 382.02,202.38 382.02,421.29l0 1722.74zm-1389.06 4098.05c2023.84,0 3664.48,1640.64 3664.48,3664.48 0,2023.84 -1640.64,3664.48 -3664.48,3664.48 -2023.84,0 -3664.48,-1640.64 -3664.48,-3664.48 0,-2023.84 1640.64,-3664.48 3664.48,-3664.48z"/>
  <circle fill="none" stroke="#B37725" stroke-width="1322.92" stroke-miterlimit="22.9256" cx="12700" cy="12700" r="3664.48"/>
 </g>
</svg>
