<?xml version="1.0" encoding="UTF-8"?>
<!DOCTYPE svg PUBLIC "-//W3C//DTD SVG 1.1//EN" "http://www.w3.org/Graphics/SVG/1.1/DTD/svg11.dtd">
<!-- Creator: CorelDRAW 2020 (64-Bit) -->
<svg xmlns="http://www.w3.org/2000/svg" xml:space="preserve" width="254mm" height="254mm" version="1.1" shape-rendering="geometricPrecision" text-rendering="geometricPrecision" image-rendering="optimizeQuality" fill-rule="evenodd" clip-rule="evenodd"
viewBox="0 0 25400 25400"
 xmlns:xlink="http://www.w3.org/1999/xlink"
 xmlns:xodm="http://www.corel.com/coreldraw/odm/2003">
 <g>
  <path fill="#B37725" d="M11335.88 7377.08l-76.18 -179.46c-50.75,-119.56 -184.77,-179.62 -306.31,-141.53 -8.5,2.59 -16.93,5.62 -25.28,9.17l-527.34 224.1 -525.27 222.96c-8.28,3.51 -16.27,7.44 -23.97,11.72 -111.94,60.96 -161.86,199.2 -111.03,318.8l399.74 940.72c-576.53,375.87 -1049.47,866.35 -1401.25,1427.21l-766.84 -309.83 -181.36 -73.27c-120.48,-48.68 -257.79,3.69 -316.75,116.67 -4.15,7.79 -7.94,15.85 -11.31,24.21l-210.53 521.69 -217.67 538.74c-3.39,8.4 -6.29,16.89 -8.71,25.42 -35.93,122.21 26.51,255.15 146.97,303.76l948.41 382.74c-136.34,647.83 -136.54,1329.2 17.3,2000.01l-761.5 323.24 -179.38 76.14c-119.55,50.75 -179.62,184.77 -141.52,306.31 2.58,8.5 5.62,16.94 9.17,25.29l224.09 527.34 222.96 525.27c3.52,8.27 7.44,16.26 11.73,23.97 60.95,111.93 199.19,161.86 318.8,111.03l940.71 -399.75c375.9,576.48 866.36,1049.46 1427.24,1401.19l-309.86 766.91 -73.26 181.35c-48.68,120.49 3.68,257.79 116.67,316.75 7.78,4.15 15.85,7.94 24.21,11.32l521.68 210.53 538.74 217.66c8.4,3.4 16.89,6.29 25.43,8.71 122.2,35.93 255.14,-26.51 303.75,-146.97l382.72 -948.36c647.85,136.29 1329.2,136.54 2000.03,-17.36l323.24 761.51 76.15 179.38c50.74,119.56 184.76,179.62 306.3,141.52 8.5,-2.58 16.94,-5.61 25.29,-9.16l527.34 -224.1 525.27 -222.96c8.28,-3.52 16.27,-7.44 23.97,-11.72 111.94,-60.96 161.86,-199.2 111.03,-318.81l-399.73 -940.67c576.55,-375.87 1049.48,-866.38 1401.26,-1427.24l766.94 309.86 181.23 73.23c120.49,48.67 257.79,-3.69 316.75,-116.67 4.16,-7.79 7.95,-15.85 11.32,-24.21l210.53 -521.69 217.66 -538.74c3.4,-8.4 6.29,-16.89 8.72,-25.42 35.93,-122.21 -26.52,-255.15 -146.97,-303.76l-948.39 -382.73c136.33,-647.84 136.53,-1329.21 -17.32,-2000.03l761.42 -323.2 179.45 -76.17c119.56,-50.75 179.62,-184.77 141.53,-306.31 -2.59,-8.5 -5.62,-16.94 -9.17,-25.29l-224.09 -527.34 -222.97 -525.27c-3.51,-8.28 -7.44,-16.26 -11.72,-23.97 -60.95,-111.94 -199.19,-161.86 -318.8,-111.03l-940.72 399.75c-375.9,-576.48 -866.37,-1049.46 -1427.23,-1401.19l309.89 -767.01 73.23 -181.25c48.68,-120.49 -3.69,-257.79 -116.67,-316.75 -7.78,-4.15 -15.85,-7.94 -24.21,-11.32l-521.69 -210.53 -538.74 -217.66c-8.4,-3.4 -16.89,-6.29 -25.42,-8.71 -122.2,-35.93 -255.15,26.51 -303.75,146.97l-73.21 181.39 -309.52 766.97c-647.85,-136.3 -1329.2,-136.56 -2000.03,17.34l-323.2 -761.41zm4500.42 11285.32l-1025.96 435.5c-556.34,236.15 -1204.72,-25.82 -1440.87,-582.15l-146.46 -345.04c-318.36,30.49 -636.25,32.69 -950.3,7.9l-140.58 347.94c-226.4,560.37 -870.12,833.61 -1430.49,607.21l-1033.4 -417.53c-560.37,-226.41 -833.61,-870.12 -607.21,-1430.49l140.65 -348.13c-243.07,-200.33 -470.3,-422.57 -678.09,-665.66l-345.12 146.5c-556.34,236.15 -1204.72,-25.82 -1440.87,-582.15l-435.5 -1025.96c-236.15,-556.34 25.82,-1204.72 582.15,-1440.87l345.04 -146.46c-30.49,-318.36 -32.69,-636.25 -7.9,-950.3l-347.94 -140.58c-560.37,-226.4 -833.61,-870.12 -607.21,-1430.49l417.53 -1033.4c226.41,-560.37 870.12,-833.61 1430.49,-607.21l348.13 140.65c200.33,-243.07 422.57,-470.3 665.66,-678.09l-146.5 -345.12c-236.15,-556.34 25.82,-1204.72 582.15,-1440.87l1025.96 -435.5c556.34,-236.15 1204.72,25.82 1440.87,582.15l146.5 345.13c318.33,-30.52 636.17,-32.53 950.18,-7.79l140.66 -348.14c226.4,-560.37 870.12,-833.61 1430.49,-607.21l1033.4 417.53c560.37,226.41 833.61,870.12 607.21,1430.49l-140.58 347.94c243.12,200.32 470.27,422.73 678.1,665.81l345.04 -146.46c556.34,-236.15 1204.72,25.82 1440.87,582.15l435.5 1025.96c236.15,556.34 -25.82,1204.72 -582.15,1440.87l-345.13 146.5c30.52,318.33 32.55,636.17 7.8,950.19l348.13 140.65c560.37,226.4 833.61,870.12 607.21,1430.49l-417.53 1033.4c-226.41,560.37 -870.12,833.61 -1430.49,607.21l-347.94 -140.58c-200.32,243.13 -422.72,470.28 -665.81,678.11l146.46 345.03c236.15,556.34 -25.82,1204.72 -582.15,1440.87z"/>
  <path fill="white" d="M11659.08 8138.49c670.82,-153.9 1352.19,-153.64 2000.03,-17.35l382.74 -948.36c48.61,-120.45 181.55,-182.9 303.74,-146.97 8.53,2.44 17.04,5.33 25.42,8.71l538.74 217.65 521.68 210.55c8.37,3.38 16.44,7.16 24.23,11.32 112.96,58.95 165.33,196.28 116.67,316.75l-383.15 948.26c560.87,351.73 1051.34,824.7 1427.25,1401.19l940.72 -399.76c119.6,-50.81 257.84,-0.92 318.81,111.04 4.27,7.7 8.2,15.7 11.71,23.96l222.97 525.28 224.08 527.35c3.56,8.34 6.59,16.78 9.17,25.27 38.1,121.55 -21.96,255.58 -141.52,306.32l-940.86 399.38c153.83,670.82 153.65,1352.19 17.33,2000l948.37 382.76c120.45,48.6 182.91,181.56 146.95,303.74 -2.41,8.53 -5.3,17.05 -8.69,25.43l-217.67 538.74 -210.53 521.7c-3.37,8.33 -7.15,16.42 -11.31,24.18 -58.97,113 -196.28,165.36 -316.75,116.7l-948.17 -383.1c-351.8,560.84 -824.71,1051.37 -1401.27,1427.24l399.73 940.67c50.84,119.63 0.91,257.85 -111.04,318.8 -7.68,4.28 -15.68,8.21 -23.97,11.73l-525.26 222.97 -527.34 224.08c-8.35,3.55 -16.78,6.59 -25.28,9.18 -121.55,38.08 -255.57,-21.97 -306.3,-141.54l-399.39 -940.88c-670.83,153.88 -1352.19,153.65 -2000.04,17.38l-382.73 948.35c-48.61,120.46 -181.54,182.9 -303.75,146.97 -8.54,-2.43 -17.02,-5.33 -25.41,-8.73l-538.75 -217.65 -521.69 -210.53c-8.36,-3.37 -16.43,-7.17 -24.21,-11.32 -112.97,-58.97 -165.33,-196.27 -116.66,-316.74l383.14 -948.26c-560.9,-351.75 -1051.36,-824.71 -1427.27,-1401.2l-940.71 399.74c-119.6,50.81 -257.85,0.92 -318.78,-111.03 -4.28,-7.69 -8.25,-15.69 -11.75,-23.95l-222.95 -525.27 -224.09 -527.35c-3.56,-8.35 -6.58,-16.78 -9.18,-25.29 -38.09,-121.54 21.98,-255.56 141.54,-306.3l940.86 -399.38c-153.83,-670.83 -153.62,-1352.19 -17.29,-2000.02l-948.41 -382.75c-120.46,-48.61 -182.91,-181.55 -146.97,-303.75 2.43,-8.52 5.32,-17.03 8.71,-25.42l217.67 -538.75 210.53 -521.68c3.37,-8.36 7.15,-16.42 11.31,-24.21 58.97,-112.97 196.28,-165.33 316.74,-116.67l948.21 383.11c351.78,-560.86 824.72,-1051.35 1401.25,-1427.22l-399.75 -940.73c-50.83,-119.6 -0.91,-257.83 111.03,-318.79 7.7,-4.27 15.7,-8.21 23.97,-11.73l525.28 -222.96 527.34 -224.08c8.34,-3.56 16.79,-6.6 25.27,-9.16 121.55,-38.11 255.58,21.95 306.32,141.51l399.38 940.87zm191.4 2560.17c1105.31,-469.18 2381.67,46.5 2850.86,1151.82 469.18,1105.31 -46.5,2381.67 -1151.82,2850.86 -1105.31,469.18 -2381.67,-46.5 -2850.86,-1151.82 -469.18,-1105.31 46.5,-2381.67 1151.82,-2850.86z"/>
  <circle fill="none" stroke="#B37725" stroke-width="1322.92" stroke-miterlimit="22.9256" transform="matrix(0.546148 -0.231826 0.231826 0.546148 12700 12700)" r="3664.48"/>
  <g id="_2852895620320">
   <g>
    <path fill="none" stroke="#B37725" stroke-width="1058.33" stroke-miterlimit="22.9256" d="M2869.59 12700.02c0,-5429.19 4401.22,-9830.41 9830.41,-9830.41 3820.4,0 7294.81,2213.44 8909.37,5675.9"/>
    <polygon fill="#B37725" stroke="#B37725" stroke-width="793.75" stroke-linejoin="round" stroke-miterlimit="22.9256" points="2869.59,15058.34 3892.15,13879.19 4914.69,12700.02 2869.59,12700.02 824.49,12700.02 1847.03,13879.19 "/>
   </g>
   <g>
    <path fill="none" stroke="#B37725" stroke-width="1058.33" stroke-miterlimit="22.9256" d="M22530.41 12699.98c0,5429.19 -4401.22,9830.41 -9830.41,9830.41 -3820.4,0 -7294.81,-2213.44 -8909.37,-5675.9"/>
    <polygon fill="#B37725" stroke="#B37725" stroke-width="793.75" stroke-linejoin="round" stroke-miterlimit="22.9256" points="22530.41,10341.66 21507.85,11520.81 20485.31,12699.98 22530.41,12699.98 24575.51,12699.98 23552.97,11520.81 "/>
   </g>
  </g>
 </g>
</svg>
